# xmcd
#
# Track frame offsets:
#	150
#	16147
#	35250
#	53105
#	75855
#	106077
#	120195
#	142042
#	169365
#	185495
#	207615
#	229602
#	253452
#	268007
#	279600
#	297155
#
# Disc length: 4328 seconds
#
# Revision: 0
# Processed by: cddbd v1.5.1PL0 Copyright (c) Steve Scherf et al.
# Submitted via: dBpowerAMP V4.0
#
DISCID=e110e610
DTITLE=Nacontramão - Volume II
DYEAR=2004
DGENRE=Blues
TTITLE0=US$ 1,000,000 (Se Eu Ganhar)
TTITLE1=O Milionário E O Miserável
TTITLE2=Deixa Rolar
TTITLE3=Este É O Meu País
TTITLE4=Trindade
TTITLE5=Insônia
TTITLE6=Rock No Ar
TTITLE7=Afinal De Contas
TTITLE8=Loura Maluca II
TTITLE9=Rainhas Da Noite
TTITLE10=Liberdade
TTITLE11=Nacontramão
TTITLE12=Hino Dos Falcões
TTITLE13=Prá Não Dizer Que Não Falei Do Amor
TTITLE14=Fantasia
TTITLE15=Sou Brasileiro
EXTD=
EXTT0=
EXTT1=
EXTT2=
EXTT3=
EXTT4=
EXTT5=
EXTT6=
EXTT7=
EXTT8=
EXTT9=
EXTT10=
EXTT11=
EXTT12=
EXTT13=
EXTT14=
EXTT15=
PLAYORDER=
